# xmcd CD Database Entry
#
# Track frame offsets:
# 150
# 28930
# 42620
# 57430
# 75177
# 96000
# 107345
# 129435
# 135835
# 161137
# 169882
# 182725
# 199332
# 207522
# 224967
# 235447
# 260307
#
# Disc length: 3622 seconds
#
# Revision: 2
# Processed by: cddbd v1.4PL0 Copyright (c) Steve Scherf et al.
# Submitted via: tcd 2.0b
#
DISCID=f90e2411
DTITLE=George Winston - The Music of Vince Guaraldi
DYEAR=1900
DGENRE=
TTITLE0=Cast Your Fate to the Wind
TTITLE1=Skating
TTITLE2=Linus and Lucy
TTITLE3=The Great Pumpkin Waltz
TTITLE4=Monterey
TTITLE5=A Charlie Brown Thanksgiving
TTITLE6=Treat Street
TTITLE7=Eight Five Five
TTITLE8=The Masked Marvel
TTITLE9=Charlie Brown and His All-Stars
TTITLE10=You're in Love, Charlie Brown
TTITLE11=Peppermint Patty
TTITLE12=Bon Voyage
TTITLE13=Young Man's Fancy
TTITLE14=Remembrance
TTITLE15=Theme to Grace - Lament
TTITLE16=The Red Baron
EXTD=
EXTT0=
EXTT1=
EXTT2=
EXTT3=
EXTT4=
EXTT5=
EXTT6=
EXTT7=
EXTT8=
EXTT9=
EXTT10=
EXTT11=
EXTT12=
EXTT13=
EXTT14=
EXTT15=
EXTT16=
PLAYORDER=
